<svg width="390" height="844" viewBox="0 0 390 844" fill="none" preserveAspectRatio="none" xmlns="http://www.w3.org/2000/svg">
<rect width="390" height="844" fill="#785FFF"/>
<path d="M269.726 287.518C269.726 305.599 264.033 319.544 243.394 319.544C226.493 319.544 208.522 305.599 208.522 287.518C208.522 269.438 224.358 249.799 241.259 249.799C258.16 249.799 269.726 269.438 269.726 287.518Z" fill="#6351C5"/>
<path fill-rule="evenodd" clip-rule="evenodd" d="M0 272.237C11.0946 267.345 30.3672 263.431 67.2913 263.431C121.558 263.431 153.395 289.114 204.768 334.609C243.634 369.028 284.36 364.464 307.514 346.35C338.627 322.009 351.651 292.783 351.651 256.093C351.651 206.428 334.429 176.092 251.8 160.7C180.891 147.492 120.111 71.9116 120.111 0H390V521.726C384.453 532.243 351.651 556.471 315.473 556.948C259.759 557.682 195.362 551.077 142.542 511.453L142.143 511.153L142.142 511.153C89.6084 471.743 67.2146 454.943 36.9017 452.016C12.59 449.667 2.17069 451.037 0 452.016V272.237ZM321.679 130.455C347.597 130.455 357.974 112.239 357.974 88.6803C357.974 65.1212 342.903 37.3776 321.679 37.3776C300.454 37.3776 273.285 62.1896 273.285 85.7487C273.285 109.308 300.454 130.455 321.679 130.455ZM380.036 219.753C380.036 226.431 377.246 231.595 370.276 231.595C364.569 231.595 357.263 225.6 357.263 218.922C357.263 212.244 364.569 205.211 370.276 205.211C375.984 205.211 380.036 213.075 380.036 219.753ZM238.921 20.521C231.951 20.521 229.161 25.6846 229.161 32.3628C229.161 39.0409 233.213 46.9052 238.921 46.9052C244.628 46.9052 251.934 39.8719 251.934 33.1938C251.934 26.5156 244.628 20.521 238.921 20.521ZM61.2044 408.252C61.2044 417.752 58.4239 425.079 48.3445 425.079C40.0905 425.079 31.3139 417.752 31.3139 408.252C31.3139 398.753 39.0478 388.434 47.3018 388.434C55.5559 388.434 61.2044 398.753 61.2044 408.252ZM293.923 521.821C306.734 521.821 328.796 513.596 328.796 499.834C328.796 491.039 313.183 474.916 293.923 474.916C274.664 474.916 259.763 480.779 259.763 499.834C259.763 509.362 274.664 521.821 293.923 521.821Z" fill="#6351C5"/>
</svg>
