<svg width="390" height="490" viewBox="0 0 390 490" fill="none" xmlns="http://www.w3.org/2000/svg" preserveAspectRatio="none">
<path d="M0 454.5V0H390V473C252 415.5 219.5 490 115.5 490C62.6243 490 11.5 468.833 0 454.5Z" fill="#6351C5"/>
<path d="M101.146 129.145C46.0063 129.145 17.1467 110.532 0 88V319C35.8347 288.631 65.4333 252 110 252C173 252 214.39 271.5 274.5 271.5C327.096 271.5 357.078 226.523 356.5 179.5C355.922 132.477 303.298 100.5 245.5 100.5C187.702 100.5 167.036 129.145 101.146 129.145Z" fill="#785FFF"/>
<path d="M293 388.329C293 407.699 277.045 414.155 240.409 421.199C212.214 426.619 189 403.59 189 380.699C189 357.807 209.682 336.835 240.409 343.133C277.636 350.764 293 359.802 293 388.329Z" fill="#785FFF"/>
<path d="M357 41C357 60.2354 339 65.5 313 70C295.264 73.0697 271 63.5163 271 47.5C271 33 290.5 20 308 20C332.301 20 357 33 357 41Z" fill="#785FFF"/>
<path d="M63 352.316C63 367.105 56.9272 383 42.3129 383C32.3898 383 20 369.895 20 355.105C20 340.316 26.0641 330 37.0897 330C45.9103 330 63 337.526 63 352.316Z" fill="#785FFF"/>
<path d="M92 415.322C92 425.993 87.0638 434 79.0426 434C71.0213 434 63 422.129 63 411.458C63 400.786 65.1173 396 75.3404 396C85.5636 396 92 404.651 92 415.322Z" fill="#785FFF"/>
<path d="M167.5 68.5C167.5 78.165 161 84.5 156.5 84.5C149.044 84.5 143 76.5 143 65C143 55.335 151.5 47.5 156.5 47.5C163.956 47.5 167.5 58.835 167.5 68.5Z" fill="#785FFF"/>
<path d="M343 326.222C343 337.022 334.126 344 323.18 344C312.234 344 293 337.022 293 326.222C293 315.422 310.559 308 321.505 308C332.451 308 343 315.422 343 326.222Z" fill="#785FFF"/>
</svg>
